# File created by Blade
# Date/Time:  Tue Jan 27 19:32:37 2015
# Frame Rate: 120.000 fps
#------------------------------------------------------
:FULLY-SPECIFIED
:DEGREES
1825
root 3.713931 32.175494 -0.337552 -5.463230 -1.656483 -0.306694
Spine 3.030472 8.660980 -1.722160
Head 17.925799 -50.511699 -2.101712
LeftShoulder -2.430972 -8.570517 25.540481
LeftArm 1.232516 42.137473 -98.411815
LeftForeArm 2.133353 -0.000000 10.232859
LeftHand 10.053443 -0.000000 -5.318450
LeftHandThumb1 -26.253704 0.000000 33.147579
RightShoulder -5.720808 -1.443168 -21.482111
RightArm 11.851220 52.419115 87.018917
RightForeArm 4.266579 -0.000000 144.895871
RightHand 28.578779 0.000000 -25.202751
RightHandThumb1 -24.326973 -0.000000 -32.862282
LeftUpLeg 11.937460 2.837548 -1.060185
LeftLeg 2.619650 -0.000000 -0.000000
LeftFoot -22.278947 18.323349 -23.555451
LeftToeBase 15.827447 -0.000000 -0.000000
RightUpLeg 10.220982 -7.754553 1.465519
RightLeg 0.942229 -0.000000 -0.000000
RightFoot -13.188563 -12.658236 13.773549
RightToeBase 11.388761 -0.000000 -0.000000
1826
root 3.716533 32.175550 -0.337293 -5.487241 -1.648488 -0.305707
Spine 3.044715 8.669254 -1.701156
Head 17.985776 -50.473198 -2.098023
LeftShoulder -2.410947 -8.694104 25.556805
LeftArm 1.050564 42.115638 -98.539896
LeftForeArm 2.078563 0.000000 10.268003
LeftHand 10.061476 -0.000000 -5.347384
LeftHandThumb1 -26.253704 0.000000 33.147579
RightShoulder -5.734527 -1.521314 -21.444289
RightArm 11.828134 52.334877 86.943123
RightForeArm 4.397865 0.000000 144.548013
RightHand 28.449152 -0.000000 -25.120668
RightHandThumb1 -24.326973 -0.000000 -32.862282
LeftUpLeg 11.956086 2.821683 -1.067595
LeftLeg 2.626565 -0.000000 -0.000000
LeftFoot -22.308209 18.351720 -23.550471
LeftToeBase 15.992308 -0.000000 -0.000000
RightUpLeg 10.245141 -7.753847 1.456615
RightLeg 0.946980 -0.000000 -0.000000
RightFoot -13.188333 -12.653564 13.817743
RightToeBase 11.334092 -0.000000 -0.000000
1827
root 3.719788 32.175965 -0.338157 -5.498626 -1.639335 -0.309852
Spine 3.053881 8.672931 -1.667018
Head 18.007201 -50.421203 -2.078650
LeftShoulder -2.404484 -8.681712 25.546345
LeftArm 1.055245 42.141666 -98.526036
LeftForeArm 2.021046 -0.000000 10.313210
LeftHand 10.048881 0.000000 -5.365205
LeftHandThumb1 -26.253704 0.000000 33.147579
RightShoulder -5.747009 -1.531962 -21.431060
RightArm 11.735857 52.308645 86.831509
RightForeArm 4.502959 0.000000 144.200912
RightHand 28.521136 -0.000000 -24.970948
RightHandThumb1 -24.326973 -0.000000 -32.862282
LeftUpLeg 11.962847 2.821792 -1.067432
LeftLeg 2.630516 -0.000000 -0.000000
LeftFoot -22.305893 18.349500 -23.532772
LeftToeBase 16.058146 -0.000000 -0.000000
RightUpLeg 10.253674 -7.764305 1.451986
RightLeg 0.950241 -0.000000 -0.000000
RightFoot -13.191395 -12.660461 13.805536
RightToeBase 11.370155 -0.000000 -0.000000
1828
root 3.722967 32.176366 -0.338854 -5.504366 -1.623565 -0.310806
Spine 3.052461 8.659859 -1.644214
Head 18.038796 -50.370226 -2.056906
LeftShoulder -2.390436 -8.677209 25.542185
LeftArm 1.020206 42.168103 -98.532655
LeftForeArm 1.997116 -0.000000 10.390423
LeftHand 10.054759 -0.000000 -5.355138
LeftHandThumb1 -26.253704 0.000000 33.147579
RightShoulder -5.760474 -1.540449 -21.420003
RightArm 11.650873 52.238045 86.724114
RightForeArm 4.297911 -0.000000 143.870083
RightHand 28.466927 -0.000000 -24.740858
RightHandThumb1 -24.326973 -0.000000 -32.862282
LeftUpLeg 11.958074 2.808372 -1.072664
LeftLeg 2.644555 -0.000000 -0.000000
LeftFoot -22.303090 18.342517 -23.535254
LeftToeBase 16.022830 -0.000000 -0.000000
RightUpLeg 10.257973 -7.789526 1.441519
RightLeg 0.955023 -0.000000 -0.000000
RightFoot -13.188549 -12.642150 13.810230
RightToeBase 11.409519 -0.000000 -0.000000
1829
root 3.726756 32.176593 -0.339179 -5.517982 -1.617327 -0.313125
Spine 3.066983 8.641496 -1.616526
Head 18.029869 -50.292640 -2.000098
LeftShoulder -2.397509 -8.663713 25.540930
LeftArm 0.992470 42.177839 -98.532259
LeftForeArm 1.996678 -0.000000 10.473977
LeftHand 10.083929 -0.000000 -5.358670
LeftHandThumb1 -26.253704 0.000000 33.147579
RightShoulder -5.664532 -1.327012 -21.355189
RightArm 11.315694 52.485561 86.244099
RightForeArm 4.385638 0.000000 143.646510
RightHand 28.352673 -0.000000 -24.565910
RightHandThumb1 -24.326973 -0.000000 -32.862282
LeftUpLeg 11.966282 2.811112 -1.075453
LeftLeg 2.650870 -0.000000 -0.000000
LeftFoot -22.301893 18.344941 -23.518885
LeftToeBase 16.010296 -0.000000 -0.000000
RightUpLeg 10.268536 -7.791844 1.435571
RightLeg 0.961466 -0.000000 -0.000000
RightFoot -13.186585 -12.640289 13.820546
RightToeBase 11.372769 -0.000000 -0.000000
